<svg fill="none" height="300" viewBox="0 0 200 150" width="400" xmlns="http://www.w3.org/2000/svg">
	<rect fill="white" height="300" width="400" />
	<path d="M42.5 76H103.5" stroke="#5791FF" stroke-width="3" />
	<path d="M104 76H165" stroke="#B3CDFF" stroke-width="3" />
	<circle cx="38" cy="75" fill="#5791FF" r="12" />
	<circle cx="100" cy="75" fill="#0B5FFF" r="12" />
	<circle cx="162" cy="75" fill="#B3CDFF" r="12" />
	<mask height="9" id="mask0_277_29413" maskUnits="userSpaceOnUse" style="mask-type:alpha" width="10" x="33" y="72">
		<path d="M36.8794 80.0002C36.6243 80.0002 36.3756 79.8946 36.1939 79.7065L33.2922 76.7033C32.3962 75.776 33.7642 74.3602 34.6602 75.2876L36.8348 77.5383L41.2925 72.3504C42.1342 71.3603 43.5883 72.6837 42.7465 73.6738L37.6064 79.6603C37.4311 79.8682 37.1792 79.9903 36.9113 80.0002C36.8986 80.0002 36.889 80.0002 36.8794 80.0002Z" fill="#6B6C7E" />
	</mask>
	<g mask="url(#mask0_277_29413)">
		<rect fill="white" height="16" width="16" x="30" y="68" />
	</g>
	<path d="M97.1113 79V77.9805L99.8887 75.1445C101.037 73.9844 101.359 73.5566 101.359 72.9062V72.8887C101.359 72.1094 100.826 71.5469 99.9473 71.5469C99.0508 71.5469 98.4473 72.1387 98.4473 73.0117L98.4414 73.0352L97.0352 73.0293L97.0293 73.0117C97.0293 71.4355 98.2598 70.334 100.023 70.334C101.67 70.334 102.854 71.3359 102.854 72.7598V72.7773C102.854 73.7383 102.391 74.5 100.85 75.9824L99.1562 77.623V77.7461H102.982V79H97.1113Z" fill="white" />
	<path d="M162.018 79.1699C160.166 79.1699 158.953 78.1621 158.842 76.7148L158.836 76.6445H160.277L160.283 76.709C160.365 77.4238 161.027 77.9336 162.018 77.9336C162.996 77.9336 163.646 77.3887 163.646 76.6035V76.5918C163.646 75.7012 162.99 75.209 161.906 75.209H160.91V74.084H161.877C162.809 74.084 163.43 73.5566 163.43 72.8184V72.8066C163.43 72.0332 162.908 71.5762 162.006 71.5762C161.115 71.5762 160.5 72.0508 160.424 72.8066L160.418 72.8652H159.012L159.018 72.8008C159.146 71.3359 160.301 70.375 162.006 70.375C163.746 70.375 164.877 71.2832 164.877 72.6074V72.6191C164.877 73.668 164.121 74.3652 163.107 74.5762V74.6055C164.35 74.7227 165.176 75.4609 165.176 76.6328V76.6445C165.176 78.1328 163.893 79.1699 162.018 79.1699Z" fill="white" />
</svg>